<mxfile host="app.diagrams.net" modified="2022-06-27T03:36:43.326Z" agent="5.0 (Windows NT 10.0; Win64; x64) AppleWebKit/537.36 (KHTML, like Gecko) Chrome/103.0.0.0 Safari/537.36" etag="K08jchMPI1mUITRWQ2p4" version="20.0.3" type="github">
  <diagram id="Aa5Gdb8IDzlUkpxYy0Vf" name="Page-1">
    <mxGraphModel dx="2307" dy="1269" grid="1" gridSize="10" guides="1" tooltips="1" connect="1" arrows="1" fold="1" page="1" pageScale="1" pageWidth="1169" pageHeight="1654" math="0" shadow="0">
      <root>
        <mxCell id="0" />
        <mxCell id="1" parent="0" />
        <mxCell id="iiOgnlvAvGDJtUhTIk8a-5" value="GitHub" style="fillColor=none;strokeColor=#0D0D0D;verticalAlign=top;fontStyle=1;fontColor=#0D0D0D;strokeWidth=2;" vertex="1" parent="1">
          <mxGeometry x="40" y="520" width="440" height="160" as="geometry" />
        </mxCell>
        <mxCell id="iiOgnlvAvGDJtUhTIk8a-8" value="" style="group" vertex="1" connectable="0" parent="1">
          <mxGeometry x="80" y="560" width="110" height="92.5" as="geometry" />
        </mxCell>
        <mxCell id="iiOgnlvAvGDJtUhTIk8a-6" value="" style="verticalLabelPosition=bottom;html=1;verticalAlign=top;align=center;strokeColor=none;fillColor=#FF8000;shape=mxgraph.azure.git_repository;fontColor=#0D0D0D;" vertex="1" parent="iiOgnlvAvGDJtUhTIk8a-8">
          <mxGeometry x="22.5" width="65" height="65" as="geometry" />
        </mxCell>
        <mxCell id="iiOgnlvAvGDJtUhTIk8a-7" value="&lt;b&gt;Git Repository&lt;/b&gt;" style="text;html=1;resizable=0;autosize=1;align=center;verticalAlign=middle;points=[];fillColor=none;strokeColor=none;rounded=0;fontColor=#0D0D0D;" vertex="1" parent="iiOgnlvAvGDJtUhTIk8a-8">
          <mxGeometry y="62.5" width="110" height="30" as="geometry" />
        </mxCell>
        <mxCell id="iiOgnlvAvGDJtUhTIk8a-17" value="" style="group" vertex="1" connectable="0" parent="1">
          <mxGeometry x="330" y="560" width="100" height="93.5" as="geometry" />
        </mxCell>
        <mxCell id="iiOgnlvAvGDJtUhTIk8a-11" value="" style="shape=image;verticalLabelPosition=bottom;labelBackgroundColor=default;verticalAlign=top;aspect=fixed;imageAspect=0;image=https://duinaru.github.io/img/uploads/githubactions.png;" vertex="1" parent="iiOgnlvAvGDJtUhTIk8a-17">
          <mxGeometry x="15" width="70" height="70" as="geometry" />
        </mxCell>
        <mxCell id="iiOgnlvAvGDJtUhTIk8a-12" value="&lt;b&gt;Github Action&lt;/b&gt;" style="text;html=1;resizable=0;autosize=1;align=center;verticalAlign=middle;points=[];fillColor=none;strokeColor=none;rounded=0;fontColor=#0D0D0D;" vertex="1" parent="iiOgnlvAvGDJtUhTIk8a-17">
          <mxGeometry y="63.5" width="100" height="30" as="geometry" />
        </mxCell>
        <mxCell id="iiOgnlvAvGDJtUhTIk8a-18" style="edgeStyle=orthogonalEdgeStyle;rounded=0;orthogonalLoop=1;jettySize=auto;html=1;fontColor=#0D0D0D;" edge="1" parent="1">
          <mxGeometry relative="1" as="geometry">
            <mxPoint x="190" y="599" as="sourcePoint" />
            <mxPoint x="340" y="599" as="targetPoint" />
          </mxGeometry>
        </mxCell>
        <mxCell id="iiOgnlvAvGDJtUhTIk8a-19" value="&lt;font style=&quot;font-size: 10px;&quot;&gt;Dev / Production Push&amp;nbsp;&lt;/font&gt;" style="text;html=1;resizable=0;autosize=1;align=center;verticalAlign=middle;points=[];fillColor=none;strokeColor=none;rounded=0;fontColor=#0D0D0D;" vertex="1" parent="1">
          <mxGeometry x="200" y="574" width="130" height="30" as="geometry" />
        </mxCell>
        <mxCell id="iiOgnlvAvGDJtUhTIk8a-21" value="AWS Cloud&amp;nbsp;" style="points=[[0,0],[0.25,0],[0.5,0],[0.75,0],[1,0],[1,0.25],[1,0.5],[1,0.75],[1,1],[0.75,1],[0.5,1],[0.25,1],[0,1],[0,0.75],[0,0.5],[0,0.25]];outlineConnect=0;gradientColor=none;html=1;whiteSpace=wrap;fontSize=12;fontStyle=0;container=1;pointerEvents=0;collapsible=0;recursiveResize=0;shape=mxgraph.aws4.group;grIcon=mxgraph.aws4.group_aws_cloud_alt;strokeColor=#232F3E;fillColor=none;verticalAlign=top;align=left;spacingLeft=30;fontColor=#232F3E;dashed=0;strokeWidth=2;" vertex="1" parent="1">
          <mxGeometry x="624" y="110" width="926" height="990" as="geometry" />
        </mxCell>
        <mxCell id="iiOgnlvAvGDJtUhTIk8a-41" value="Test Server" style="fillColor=none;strokeColor=#009999;verticalAlign=top;fontStyle=0;fontColor=#009999;fontSize=10;" vertex="1" parent="iiOgnlvAvGDJtUhTIk8a-21">
          <mxGeometry x="228" y="654" width="540" height="220" as="geometry" />
        </mxCell>
        <mxCell id="iiOgnlvAvGDJtUhTIk8a-25" value="" style="group" vertex="1" connectable="0" parent="iiOgnlvAvGDJtUhTIk8a-21">
          <mxGeometry x="38" y="430" width="78" height="108" as="geometry" />
        </mxCell>
        <mxCell id="iiOgnlvAvGDJtUhTIk8a-23" value="" style="sketch=0;points=[[0,0,0],[0.25,0,0],[0.5,0,0],[0.75,0,0],[1,0,0],[0,1,0],[0.25,1,0],[0.5,1,0],[0.75,1,0],[1,1,0],[0,0.25,0],[0,0.5,0],[0,0.75,0],[1,0.25,0],[1,0.5,0],[1,0.75,0]];outlineConnect=0;fontColor=#232F3E;gradientColor=#F78E04;gradientDirection=north;fillColor=#D05C17;strokeColor=#ffffff;dashed=0;verticalLabelPosition=bottom;verticalAlign=top;align=center;html=1;fontSize=12;fontStyle=0;aspect=fixed;shape=mxgraph.aws4.resourceIcon;resIcon=mxgraph.aws4.ecr;" vertex="1" parent="iiOgnlvAvGDJtUhTIk8a-25">
          <mxGeometry width="78" height="78" as="geometry" />
        </mxCell>
        <mxCell id="iiOgnlvAvGDJtUhTIk8a-24" value="&lt;b&gt;ECR&lt;/b&gt;" style="text;html=1;resizable=0;autosize=1;align=center;verticalAlign=middle;points=[];fillColor=none;strokeColor=none;rounded=0;fontColor=#0D0D0D;" vertex="1" parent="iiOgnlvAvGDJtUhTIk8a-25">
          <mxGeometry x="14" y="78" width="50" height="30" as="geometry" />
        </mxCell>
        <mxCell id="iiOgnlvAvGDJtUhTIk8a-37" value="" style="edgeStyle=orthogonalEdgeStyle;html=1;endArrow=open;elbow=vertical;startArrow=none;endFill=0;strokeColor=#0D0D0D;rounded=0;fontSize=10;fontColor=#0D0D0D;fontStyle=1;entryX=0.5;entryY=0;entryDx=0;entryDy=0;entryPerimeter=0;" edge="1" parent="iiOgnlvAvGDJtUhTIk8a-21" target="iiOgnlvAvGDJtUhTIk8a-32">
          <mxGeometry width="100" relative="1" as="geometry">
            <mxPoint x="76" y="535" as="sourcePoint" />
            <mxPoint x="76" y="669" as="targetPoint" />
            <Array as="points">
              <mxPoint x="76" y="564" />
              <mxPoint x="312" y="564" />
            </Array>
          </mxGeometry>
        </mxCell>
        <mxCell id="iiOgnlvAvGDJtUhTIk8a-49" value="&lt;div style=&quot;text-align: center;&quot;&gt;&lt;font color=&quot;#0d0d0d&quot;&gt;Test Backend &amp;amp; Nginx Docker Image&amp;nbsp;&lt;/font&gt;&lt;/div&gt;" style="text;whiteSpace=wrap;html=1;fontSize=5;fontColor=#009999;" vertex="1" parent="iiOgnlvAvGDJtUhTIk8a-21">
          <mxGeometry x="104" y="538" width="173" height="20" as="geometry" />
        </mxCell>
        <mxCell id="iiOgnlvAvGDJtUhTIk8a-36" value="" style="group" vertex="1" connectable="0" parent="iiOgnlvAvGDJtUhTIk8a-21">
          <mxGeometry x="274" y="584" width="76.5" height="120" as="geometry" />
        </mxCell>
        <mxCell id="iiOgnlvAvGDJtUhTIk8a-32" value="" style="outlineConnect=0;dashed=0;verticalLabelPosition=bottom;verticalAlign=top;align=center;html=1;shape=mxgraph.aws3.lightsail;fillColor=#F58534;gradientColor=none;fontSize=10;fontColor=#0D0D0D;strokeColor=#0D0D0D;strokeWidth=2;" vertex="1" parent="iiOgnlvAvGDJtUhTIk8a-36">
          <mxGeometry width="76.5" height="82.5" as="geometry" />
        </mxCell>
        <mxCell id="iiOgnlvAvGDJtUhTIk8a-35" value="&lt;b style=&quot;color: rgb(13, 13, 13); font-family: Helvetica; font-size: 12px; font-style: normal; font-variant-ligatures: normal; font-variant-caps: normal; letter-spacing: normal; orphans: 2; text-align: center; text-indent: 0px; text-transform: none; widows: 2; word-spacing: 0px; -webkit-text-stroke-width: 0px; background-color: rgb(248, 249, 250); text-decoration-thickness: initial; text-decoration-style: initial; text-decoration-color: initial;&quot;&gt;LightSail&lt;/b&gt;" style="text;whiteSpace=wrap;html=1;fontSize=10;fontColor=#0D0D0D;" vertex="1" parent="iiOgnlvAvGDJtUhTIk8a-36">
          <mxGeometry x="8.25" y="80" width="60" height="40" as="geometry" />
        </mxCell>
        <mxCell id="iiOgnlvAvGDJtUhTIk8a-56" value="Docker Compose" style="points=[[0,0],[0.25,0],[0.5,0],[0.75,0],[1,0],[1,0.25],[1,0.5],[1,0.75],[1,1],[0.75,1],[0.5,1],[0.25,1],[0,1],[0,0.75],[0,0.5],[0,0.25]];outlineConnect=0;gradientColor=none;html=1;whiteSpace=wrap;fontSize=12;fontStyle=0;container=1;pointerEvents=0;collapsible=0;recursiveResize=0;shape=mxgraph.aws4.group;grIcon=mxgraph.aws4.group_on_premise;strokeColor=#67AB9F;fillColor=none;verticalAlign=top;align=left;spacingLeft=30;fontColor=#5A6C86;dashed=0;" vertex="1" parent="iiOgnlvAvGDJtUhTIk8a-21">
          <mxGeometry x="258" y="694" width="490" height="170" as="geometry" />
        </mxCell>
        <mxCell id="iiOgnlvAvGDJtUhTIk8a-61" value="" style="group" vertex="1" connectable="0" parent="iiOgnlvAvGDJtUhTIk8a-56">
          <mxGeometry x="116.00000000000001" y="20" width="108.51" height="130" as="geometry" />
        </mxCell>
        <mxCell id="iiOgnlvAvGDJtUhTIk8a-71" value="" style="group" vertex="1" connectable="0" parent="iiOgnlvAvGDJtUhTIk8a-61">
          <mxGeometry x="-1.490000000000009" width="110.00000000000001" height="130" as="geometry" />
        </mxCell>
        <mxCell id="iiOgnlvAvGDJtUhTIk8a-58" value="" style="fillColor=none;strokeColor=#00CCCC;verticalAlign=top;fontStyle=0;fontColor=#DD3522;fontSize=5;" vertex="1" parent="iiOgnlvAvGDJtUhTIk8a-71">
          <mxGeometry x="1.490000000000009" y="20" width="108.51" height="110" as="geometry" />
        </mxCell>
        <mxCell id="iiOgnlvAvGDJtUhTIk8a-59" value="" style="sketch=0;aspect=fixed;html=1;points=[];align=center;image;fontSize=12;image=img/lib/mscae/Docker.svg;fontColor=#009999;strokeColor=#67AB9F;strokeWidth=2;fillColor=#FF8000;" vertex="1" parent="iiOgnlvAvGDJtUhTIk8a-71">
          <mxGeometry x="30.74000000000001" width="50" height="41" as="geometry" />
        </mxCell>
        <mxCell id="iiOgnlvAvGDJtUhTIk8a-69" value="" style="shape=image;verticalLabelPosition=bottom;labelBackgroundColor=default;verticalAlign=top;aspect=fixed;imageAspect=0;image=https://images.velog.io/images/dnflekf2748/post/fc6ddcf8-f69d-44be-9715-fa0b9aed0f73/nginx.png;" vertex="1" parent="iiOgnlvAvGDJtUhTIk8a-71">
          <mxGeometry y="37.129999999999995" width="110" height="75.73" as="geometry" />
        </mxCell>
        <mxCell id="iiOgnlvAvGDJtUhTIk8a-70" value="&lt;b&gt;&lt;font color=&quot;#000000&quot;&gt;Nginx Server&lt;/font&gt;&lt;/b&gt;" style="text;html=1;resizable=0;autosize=1;align=center;verticalAlign=middle;points=[];fillColor=none;strokeColor=none;rounded=0;fontSize=5;fontColor=#009999;" vertex="1" parent="iiOgnlvAvGDJtUhTIk8a-71">
          <mxGeometry x="10" y="90" width="90" height="30" as="geometry" />
        </mxCell>
        <mxCell id="iiOgnlvAvGDJtUhTIk8a-73" value="" style="edgeStyle=orthogonalEdgeStyle;html=1;endArrow=block;elbow=vertical;startArrow=none;endFill=1;strokeColor=#545B64;rounded=0;fontSize=5;fontColor=#000000;" edge="1" parent="iiOgnlvAvGDJtUhTIk8a-56">
          <mxGeometry width="100" relative="1" as="geometry">
            <mxPoint x="236" y="94.67999999999995" as="sourcePoint" />
            <mxPoint x="336" y="94.67999999999995" as="targetPoint" />
          </mxGeometry>
        </mxCell>
        <mxCell id="iiOgnlvAvGDJtUhTIk8a-74" value="&lt;div style=&quot;text-align: center;&quot;&gt;&lt;font color=&quot;#0d0d0d&quot;&gt;3000 Port Redirect&lt;/font&gt;&lt;/div&gt;" style="text;whiteSpace=wrap;html=1;fontSize=5;fontColor=#009999;" vertex="1" parent="iiOgnlvAvGDJtUhTIk8a-56">
          <mxGeometry x="236" y="100" width="94" height="20" as="geometry" />
        </mxCell>
        <mxCell id="iiOgnlvAvGDJtUhTIk8a-80" value="" style="edgeStyle=orthogonalEdgeStyle;html=1;endArrow=open;elbow=vertical;startArrow=open;startFill=0;endFill=0;strokeColor=#545B64;rounded=0;fontSize=5;fontColor=#000000;entryX=0;entryY=0.5;entryDx=0;entryDy=0;entryPerimeter=0;" edge="1" parent="iiOgnlvAvGDJtUhTIk8a-56" target="iiOgnlvAvGDJtUhTIk8a-76">
          <mxGeometry width="100" relative="1" as="geometry">
            <mxPoint x="436" y="100" as="sourcePoint" />
            <mxPoint x="536" y="100" as="targetPoint" />
          </mxGeometry>
        </mxCell>
        <mxCell id="iiOgnlvAvGDJtUhTIk8a-62" value="" style="group" vertex="1" connectable="0" parent="iiOgnlvAvGDJtUhTIk8a-21">
          <mxGeometry x="607" y="714" width="108.51" height="130" as="geometry" />
        </mxCell>
        <mxCell id="iiOgnlvAvGDJtUhTIk8a-67" value="" style="group" vertex="1" connectable="0" parent="iiOgnlvAvGDJtUhTIk8a-62">
          <mxGeometry width="108.51" height="130" as="geometry" />
        </mxCell>
        <mxCell id="iiOgnlvAvGDJtUhTIk8a-63" value="" style="fillColor=none;strokeColor=#00CCCC;verticalAlign=top;fontStyle=0;fontColor=#DD3522;fontSize=5;" vertex="1" parent="iiOgnlvAvGDJtUhTIk8a-67">
          <mxGeometry y="20" width="108.51" height="110" as="geometry" />
        </mxCell>
        <mxCell id="iiOgnlvAvGDJtUhTIk8a-64" value="" style="sketch=0;aspect=fixed;html=1;points=[];align=center;image;fontSize=12;image=img/lib/mscae/Docker.svg;fontColor=#009999;strokeColor=#67AB9F;strokeWidth=2;fillColor=#FF8000;" vertex="1" parent="iiOgnlvAvGDJtUhTIk8a-67">
          <mxGeometry x="29.25" width="50" height="41" as="geometry" />
        </mxCell>
        <mxCell id="iiOgnlvAvGDJtUhTIk8a-65" value="" style="shape=image;verticalLabelPosition=bottom;labelBackgroundColor=default;verticalAlign=top;aspect=fixed;imageAspect=0;image=https://images.velog.io/images/ksone02/post/fa906afb-df49-46ef-bded-7d408761000a/logo-small.svg;" vertex="1" parent="iiOgnlvAvGDJtUhTIk8a-67">
          <mxGeometry x="29.25" y="51.539999999999964" width="48.61" height="46.93" as="geometry" />
        </mxCell>
        <mxCell id="iiOgnlvAvGDJtUhTIk8a-66" value="&lt;b&gt;&lt;font color=&quot;#000000&quot;&gt;Backend Server&lt;/font&gt;&lt;/b&gt;" style="text;html=1;resizable=0;autosize=1;align=center;verticalAlign=middle;points=[];fillColor=none;strokeColor=none;rounded=0;fontSize=5;fontColor=#009999;" vertex="1" parent="iiOgnlvAvGDJtUhTIk8a-67">
          <mxGeometry x="4.25" y="90" width="100" height="30" as="geometry" />
        </mxCell>
        <mxCell id="iiOgnlvAvGDJtUhTIk8a-75" value="Amazon S3" style="sketch=0;outlineConnect=0;fontColor=#232F3E;gradientColor=none;strokeColor=#ffffff;fillColor=#232F3E;dashed=0;verticalLabelPosition=middle;verticalAlign=bottom;align=center;html=1;whiteSpace=wrap;fontSize=10;fontStyle=1;spacing=3;shape=mxgraph.aws4.productIcon;prIcon=mxgraph.aws4.s3;" vertex="1" parent="iiOgnlvAvGDJtUhTIk8a-21">
          <mxGeometry x="824" y="654" width="64" height="80" as="geometry" />
        </mxCell>
        <mxCell id="iiOgnlvAvGDJtUhTIk8a-78" value="" style="group" vertex="1" connectable="0" parent="iiOgnlvAvGDJtUhTIk8a-21">
          <mxGeometry x="824" y="764" width="63" height="78" as="geometry" />
        </mxCell>
        <mxCell id="iiOgnlvAvGDJtUhTIk8a-76" value="" style="sketch=0;points=[[0,0,0],[0.25,0,0],[0.5,0,0],[0.75,0,0],[1,0,0],[0,1,0],[0.25,1,0],[0.5,1,0],[0.75,1,0],[1,1,0],[0,0.25,0],[0,0.5,0],[0,0.75,0],[1,0.25,0],[1,0.5,0],[1,0.75,0]];outlineConnect=0;fontColor=#232F3E;gradientColor=#4D72F3;gradientDirection=north;fillColor=#3334B9;strokeColor=#ffffff;dashed=0;verticalLabelPosition=bottom;verticalAlign=top;align=center;html=1;fontSize=12;fontStyle=0;aspect=fixed;shape=mxgraph.aws4.resourceIcon;resIcon=mxgraph.aws4.rds;" vertex="1" parent="iiOgnlvAvGDJtUhTIk8a-78">
          <mxGeometry width="60" height="60" as="geometry" />
        </mxCell>
        <mxCell id="iiOgnlvAvGDJtUhTIk8a-77" value="&lt;div style=&quot;text-align: center;&quot;&gt;&lt;span style=&quot;background-color: initial;&quot;&gt;&lt;b&gt;TEST RDS&lt;/b&gt;&lt;/span&gt;&lt;/div&gt;" style="text;whiteSpace=wrap;html=1;fontSize=5;fontColor=#000000;" vertex="1" parent="iiOgnlvAvGDJtUhTIk8a-78">
          <mxGeometry x="3" y="58" width="60" height="20" as="geometry" />
        </mxCell>
        <mxCell id="iiOgnlvAvGDJtUhTIk8a-93" value="&lt;div style=&quot;text-align: center;&quot;&gt;&lt;font color=&quot;#0d0d0d&quot;&gt;test.backend.doggly.co.kr&lt;/font&gt;&lt;/div&gt;" style="text;whiteSpace=wrap;html=1;fontSize=5;fontColor=#009999;" vertex="1" parent="iiOgnlvAvGDJtUhTIk8a-21">
          <mxGeometry x="534" y="594" width="76" height="20" as="geometry" />
        </mxCell>
        <mxCell id="iiOgnlvAvGDJtUhTIk8a-90" value="" style="group" vertex="1" connectable="0" parent="iiOgnlvAvGDJtUhTIk8a-21">
          <mxGeometry x="794" y="454" width="68" height="94" as="geometry" />
        </mxCell>
        <mxCell id="iiOgnlvAvGDJtUhTIk8a-81" value="" style="sketch=0;points=[[0,0,0],[0.25,0,0],[0.5,0,0],[0.75,0,0],[1,0,0],[0,1,0],[0.25,1,0],[0.5,1,0],[0.75,1,0],[1,1,0],[0,0.25,0],[0,0.5,0],[0,0.75,0],[1,0.25,0],[1,0.5,0],[1,0.75,0]];outlineConnect=0;fontColor=#232F3E;gradientColor=#945DF2;gradientDirection=north;fillColor=#5A30B5;strokeColor=#ffffff;dashed=0;verticalLabelPosition=bottom;verticalAlign=top;align=center;html=1;fontSize=12;fontStyle=0;aspect=fixed;shape=mxgraph.aws4.resourceIcon;resIcon=mxgraph.aws4.route_53;" vertex="1" parent="iiOgnlvAvGDJtUhTIk8a-90">
          <mxGeometry width="68" height="68" as="geometry" />
        </mxCell>
        <mxCell id="iiOgnlvAvGDJtUhTIk8a-89" value="&lt;b style=&quot;color: rgb(13, 13, 13); font-family: Helvetica; font-style: normal; font-variant-ligatures: normal; font-variant-caps: normal; letter-spacing: normal; orphans: 2; text-indent: 0px; text-transform: none; widows: 2; word-spacing: 0px; -webkit-text-stroke-width: 0px; text-decoration-thickness: initial; text-decoration-style: initial; text-decoration-color: initial; font-size: 12px; text-align: center; background-color: rgb(248, 249, 250);&quot;&gt;Route 53&lt;/b&gt;" style="text;whiteSpace=wrap;html=1;fontSize=5;fontColor=#000000;" vertex="1" parent="iiOgnlvAvGDJtUhTIk8a-90">
          <mxGeometry x="6" y="68" width="54" height="26" as="geometry" />
        </mxCell>
        <mxCell id="iiOgnlvAvGDJtUhTIk8a-97" style="edgeStyle=orthogonalEdgeStyle;rounded=0;orthogonalLoop=1;jettySize=auto;html=1;exitX=0.5;exitY=1;exitDx=0;exitDy=0;entryX=0.25;entryY=0;entryDx=0;entryDy=0;fontSize=5;fontColor=#000000;strokeColor=#0D0D0D;" edge="1" parent="iiOgnlvAvGDJtUhTIk8a-21" source="iiOgnlvAvGDJtUhTIk8a-89" target="iiOgnlvAvGDJtUhTIk8a-56">
          <mxGeometry relative="1" as="geometry">
            <Array as="points">
              <mxPoint x="827" y="624" />
              <mxPoint x="380" y="624" />
            </Array>
          </mxGeometry>
        </mxCell>
        <mxCell id="iiOgnlvAvGDJtUhTIk8a-28" style="edgeStyle=orthogonalEdgeStyle;rounded=0;orthogonalLoop=1;jettySize=auto;html=1;fontSize=10;fontColor=#0D0D0D;" edge="1" parent="1">
          <mxGeometry relative="1" as="geometry">
            <mxPoint x="434" y="599.26" as="sourcePoint" />
            <mxPoint x="650" y="600" as="targetPoint" />
            <Array as="points">
              <mxPoint x="650" y="599" />
              <mxPoint x="650" y="599" />
            </Array>
          </mxGeometry>
        </mxCell>
        <mxCell id="iiOgnlvAvGDJtUhTIk8a-29" value="&lt;font style=&quot;font-size: 10px;&quot;&gt;Build Docker &amp;amp; Push With Tag&lt;/font&gt;" style="text;html=1;resizable=0;autosize=1;align=center;verticalAlign=middle;points=[];fillColor=none;strokeColor=none;rounded=0;fontColor=#0D0D0D;" vertex="1" parent="1">
          <mxGeometry x="470" y="574" width="160" height="30" as="geometry" />
        </mxCell>
        <mxCell id="iiOgnlvAvGDJtUhTIk8a-47" value="" style="edgeStyle=orthogonalEdgeStyle;html=1;endArrow=block;elbow=vertical;startArrow=none;endFill=1;strokeColor=#545B64;rounded=0;fontSize=5;fontColor=#009999;" edge="1" parent="1">
          <mxGeometry width="100" relative="1" as="geometry">
            <mxPoint x="380" y="654" as="sourcePoint" />
            <mxPoint x="740" y="697" as="targetPoint" />
            <Array as="points">
              <mxPoint x="380" y="730" />
              <mxPoint x="740" y="730" />
            </Array>
          </mxGeometry>
        </mxCell>
        <mxCell id="iiOgnlvAvGDJtUhTIk8a-48" value="&lt;div style=&quot;text-align: center;&quot;&gt;&lt;font color=&quot;#0d0d0d&quot;&gt;Pull ECR Test tag image to LightSail Server&amp;nbsp;&lt;/font&gt;&lt;/div&gt;" style="text;whiteSpace=wrap;html=1;fontSize=5;fontColor=#009999;" vertex="1" parent="1">
          <mxGeometry x="394" y="730" width="230" height="20" as="geometry" />
        </mxCell>
        <mxCell id="iiOgnlvAvGDJtUhTIk8a-84" value="" style="edgeStyle=orthogonalEdgeStyle;html=1;endArrow=openThin;elbow=vertical;startArrow=none;endFill=0;strokeColor=#545B64;rounded=0;fontSize=5;fontColor=#000000;" edge="1" parent="1">
          <mxGeometry width="100" relative="1" as="geometry">
            <mxPoint x="1715" y="620" as="sourcePoint" />
            <mxPoint x="1495" y="620" as="targetPoint" />
          </mxGeometry>
        </mxCell>
        <mxCell id="iiOgnlvAvGDJtUhTIk8a-91" value="" style="sketch=0;outlineConnect=0;fontColor=#232F3E;gradientColor=none;fillColor=#232F3D;strokeColor=none;dashed=0;verticalLabelPosition=bottom;verticalAlign=top;align=center;html=1;fontSize=12;fontStyle=0;aspect=fixed;pointerEvents=1;shape=mxgraph.aws4.client;" vertex="1" parent="1">
          <mxGeometry x="1730" y="590" width="78" height="76" as="geometry" />
        </mxCell>
        <mxCell id="iiOgnlvAvGDJtUhTIk8a-92" value="&lt;div style=&quot;text-align: center;&quot;&gt;&lt;font color=&quot;#0d0d0d&quot;&gt;Client Request&lt;/font&gt;&lt;/div&gt;" style="text;whiteSpace=wrap;html=1;fontSize=5;fontColor=#009999;" vertex="1" parent="1">
          <mxGeometry x="1610" y="590" width="76" height="20" as="geometry" />
        </mxCell>
      </root>
    </mxGraphModel>
  </diagram>
</mxfile>
